<svg width="132" height="152" viewBox="0 0 132 152" fill="none" xmlns="http://www.w3.org/2000/svg">
<path fill-rule="evenodd" clip-rule="evenodd" d="M66.1398 0L131.516 37.808V113.424L66.1398 151.232L0.763428 113.424L0.763428 37.808L66.1398 0Z" fill="url(#paint0_linear)"/>
<path fill-rule="evenodd" clip-rule="evenodd" d="M66.2192 7.3772L125.507 41.4966V109.735L66.2192 143.855L6.93097 109.735L6.93097 41.4966L66.2192 7.3772Z" stroke="white" stroke-width="3.26882"/>
<path d="M45.5972 117.858H54.1729L53.7954 115.467H49.2109L51.638 113.13C53.1122 111.728 53.9392 110.649 53.9392 108.995C53.9392 106.82 52.3931 105.507 49.8941 105.507C48.1861 105.507 46.9096 106.011 45.8669 106.712L46.2264 109.265C47.2692 108.51 48.3659 108.024 49.4446 108.024C50.4334 108.024 51.0087 108.492 51.0087 109.319C51.0087 110.128 50.5952 110.703 49.7862 111.53L45.5972 115.719V117.858ZM65.549 111.782C65.549 107.719 63.5354 105.471 60.515 105.471C57.4766 105.471 55.4451 107.719 55.4451 111.782C55.4451 115.845 57.4766 118.092 60.515 118.092C63.5354 118.092 65.549 115.845 65.549 111.782ZM62.5825 111.782C62.5825 114.371 61.9173 115.809 60.515 115.809C59.1127 115.809 58.4295 114.371 58.4295 111.782C58.4295 109.193 59.1127 107.754 60.515 107.754C61.9173 107.754 62.5825 109.193 62.5825 111.782ZM66.8062 117.858H75.3819L75.0044 115.467H70.4199L72.847 113.13C74.3212 111.728 75.1482 110.649 75.1482 108.995C75.1482 106.82 73.6021 105.507 71.1031 105.507C69.3951 105.507 68.1186 106.011 67.0759 106.712L67.4354 109.265C68.4782 108.51 69.5749 108.024 70.6536 108.024C71.6424 108.024 72.2177 108.492 72.2177 109.319C72.2177 110.128 71.8042 110.703 70.9952 111.53L66.8062 115.719V117.858ZM86.758 111.782C86.758 107.719 84.7444 105.471 81.724 105.471C78.6856 105.471 76.6541 107.719 76.6541 111.782C76.6541 115.845 78.6856 118.092 81.724 118.092C84.7444 118.092 86.758 115.845 86.758 111.782ZM83.7915 111.782C83.7915 114.371 83.1263 115.809 81.724 115.809C80.3217 115.809 79.6385 114.371 79.6385 111.782C79.6385 109.193 80.3217 107.754 81.724 107.754C83.1263 107.754 83.7915 109.193 83.7915 111.782Z" fill="#F0F6FF"/>
<path d="M38.0006 90.6744L37.5691 88.0675H27.7528V90.6744H31.2586V100.473H34.3509V90.6744H38.0006ZM45.4219 96.0679C45.4219 93.2453 43.6241 91.4834 41.179 91.4834C38.7519 91.4834 36.954 93.2633 36.954 96.0859C36.954 98.9085 38.7339 100.652 41.161 100.652C43.6061 100.652 45.4219 98.8905 45.4219 96.0679ZM42.797 96.0859C42.797 97.5062 42.2217 98.4591 41.179 98.4591C40.1542 98.4591 39.5789 97.4882 39.5789 96.0679C39.5789 94.6296 40.1362 93.6948 41.179 93.6948C42.2217 93.6948 42.797 94.6656 42.797 96.0859ZM52.4217 96.014C52.4217 97.7219 51.7385 98.4231 50.8216 98.4231C50.2823 98.4231 49.9587 98.3332 49.5811 98.1534V94.8094C50.0486 94.2701 50.498 93.9105 51.0913 93.9105C51.8644 93.9105 52.4217 94.5398 52.4217 96.014ZM55.1545 95.8342C55.1545 92.8498 53.7881 91.4834 51.9723 91.4834C50.8396 91.4834 50.0486 92.1486 49.4373 92.8138L49.2575 91.6632H46.8664V103.817L49.5811 103.403V100.257C50.0845 100.419 50.6419 100.563 51.4329 100.563C53.3746 100.563 55.1545 99.1782 55.1545 95.8342ZM67.1448 100.599L70.399 100.077L67.3606 95.5106C68.8348 94.8813 69.6978 93.7127 69.6978 91.9868C69.6978 89.4339 67.9359 88.0675 64.9335 88.0675H60.6007V100.473H63.657V96.2118H64.4301L67.1448 100.599ZM66.6774 92.1666C66.6774 93.3532 65.9223 94.0004 64.5919 94.0004H63.639V90.3867H64.6279C65.9583 90.3867 66.6774 91.016 66.6774 92.1666ZM76.0839 98.0456C75.5985 98.477 75.0951 98.7108 74.5917 98.7108C74.0704 98.7108 73.7288 98.4051 73.7288 97.8478C73.7288 97.0747 74.2322 96.4635 76.0839 96.1758V98.0456ZM78.7987 100.473V94.5757C78.7987 92.3284 77.5941 91.5194 75.167 91.5194C73.7288 91.5194 72.5961 91.789 71.5893 92.2025L71.9129 94.2521C72.8478 93.8386 73.7647 93.5869 74.7535 93.5869C75.6525 93.5869 76.0839 93.9285 76.0839 94.7016V94.8634C72.6321 95.169 71.05 96.1398 71.05 98.2074C71.05 99.8075 72.0388 100.652 73.4411 100.652C74.6457 100.652 75.4907 100.131 76.2098 99.376L76.3896 100.473H78.7987ZM85.8433 100.419L85.5197 98.1894C85.3219 98.2433 85.0882 98.2793 84.8545 98.2793C84.1354 98.2793 83.7758 97.9377 83.7758 97.2365V93.8745H85.7894L85.4478 91.6632H83.7758V88.6068L81.079 89.0383V91.6632H79.9104V93.8745H81.079V97.668C81.079 99.9153 82.3915 100.599 84.2792 100.599C84.9983 100.599 85.4118 100.545 85.8433 100.419ZM90.7043 93.2453C91.5313 93.2453 91.9987 93.9285 92.0886 95.2589H89.3199C89.3918 93.8925 89.9492 93.2453 90.7043 93.2453ZM94.6595 99.6636L94.3898 97.7399C93.419 98.3152 92.4661 98.6748 91.4953 98.6748C90.3087 98.6748 89.4637 98.1355 89.3199 96.7511H94.6415C94.6595 96.6073 94.6775 96.3196 94.6775 96.0499C94.6775 93.497 93.4909 91.4834 90.7762 91.4834C88.385 91.4834 86.6231 93.2273 86.6231 96.1039C86.6231 99.2321 88.5109 100.652 91.1537 100.652C92.5381 100.652 93.7067 100.275 94.6595 99.6636ZM98.4689 96.1219C98.4689 94.4319 99.152 93.7307 100.051 93.7307C100.626 93.7307 100.932 93.8026 101.327 93.9824V97.3444C100.86 97.8658 100.393 98.2433 99.8172 98.2433C99.0442 98.2433 98.4689 97.6321 98.4689 96.1219ZM95.7361 96.3196C95.7361 99.2861 97.1205 100.652 98.9183 100.652C100.051 100.652 100.86 99.9872 101.453 99.322L101.633 100.473H104.042V87.4922L101.327 87.9237V91.8969C100.824 91.7171 100.267 91.5913 99.4577 91.5913C97.516 91.5913 95.7361 92.9576 95.7361 96.3196Z" fill="white"/>
<path fill-rule="evenodd" clip-rule="evenodd" d="M56.2717 73.7717H18.0327V75.616H56.2717V73.7717ZM76.0079 75.616H115.48V73.7717H76.0079V75.616Z" fill="white"/>
<path fill-rule="evenodd" clip-rule="evenodd" d="M64.3574 71.5223C64.3082 71.6579 64.178 71.7559 64.0304 71.7559L59.9506 71.8482C59.615 71.854 59.4732 72.2809 59.7452 72.4856L62.9917 74.9487C63.1132 75.0352 63.1624 75.1909 63.119 75.3323L61.9442 79.2287C61.8459 79.5488 62.2075 79.8113 62.4853 79.6181L65.8389 77.2963C65.9604 77.2098 66.1224 77.2098 66.2439 77.2963L69.5975 79.6094C69.8752 79.7998 70.2369 79.5373 70.1386 79.22L68.9638 75.3236C68.9204 75.1823 68.9696 75.0323 69.0911 74.94L72.3376 72.477C72.6096 72.2722 72.4649 71.8454 72.1322 71.8396L68.0524 71.7473C67.9019 71.7473 67.7746 71.655 67.7254 71.5137L66.3799 67.6749C66.2729 67.3548 65.8244 67.3548 65.7115 67.6749L64.3574 71.5223Z" fill="white"/>
<path d="M91.7728 59.3074L81.9912 49.679L83.1511 48.5373H80.8314L80.0581 47.7761H83.9244L85.4709 46.2539H78.5116L77.7384 45.4927H86.2441L87.4427 44.313C87.6746 44.0846 87.7906 43.8182 87.7906 43.5138V36.0546C87.7906 35.7502 87.6746 35.4457 87.4427 35.2554L86.2441 34.0757H67.6861L66.4876 35.2554C66.2556 35.4838 66.1396 35.7502 66.1396 36.0546V61.0199C66.1396 61.3624 66.5649 61.5147 66.7969 61.2863L71.9777 56.1867C72.2097 55.9584 72.3256 55.692 72.3256 55.3875V47.7761V35.598H81.6046V43.9705H76.3465C76.2305 43.9705 76.1532 44.0085 76.0759 44.0846L72.3256 47.7761L84.3497 59.6118C84.5816 59.8402 84.8523 59.9543 85.1616 59.9543H91.4635C91.8502 59.9543 92.0048 59.5357 91.7728 59.3074Z" fill="white"/>
<path d="M83.9244 31.792H70.0059L68.4594 33.3143H85.4709L83.9244 31.792Z" fill="white"/>
<path d="M81.9526 29.8513C81.7206 29.623 81.4499 29.5088 81.1406 29.5088H72.7896C72.4803 29.5088 72.171 29.623 71.9776 29.8513L70.7791 31.0311H83.1511L81.9526 29.8513Z" fill="white"/>
<path d="M57.6857 29.8513C57.4478 29.623 57.1703 29.5088 56.8531 29.5088H42.0244C41.6676 29.5088 41.509 29.9274 41.7469 30.1558L42.6588 31.0311H58.9148L57.6857 29.8513Z" fill="white"/>
<path d="M59.7079 31.792H43.4519L45.0379 33.3143H61.2938L59.7079 31.792Z" fill="white"/>
<path d="M63.6727 36.0546C63.6727 35.7502 63.5537 35.4457 63.3158 35.2554L62.0867 34.0757H45.8307L47.0599 35.2554C47.2978 35.4838 47.5753 35.598 47.8925 35.598H57.3289V55.3875C57.3289 55.692 57.4478 55.9964 57.6857 56.1867L62.9986 61.2863C63.2365 61.5147 63.6727 61.3624 63.6727 61.0199V36.0546Z" fill="white"/>
<defs>
<linearGradient id="paint0_linear" x1="0.763428" y1="0" x2="0.763428" y2="151.232" gradientUnits="userSpaceOnUse">
<stop stop-color="#116BF2"/>
<stop offset="1" stop-color="#1B3AB5"/>
</linearGradient>
</defs>
</svg>
